<svg version="1.1" id="Layer_1" xmlns="http://www.w3.org/2000/svg" xmlns:xlink="http://www.w3.org/1999/xlink" x="0px" y="0px"
	 width="100%" viewBox="0 0 1844 408" enable-background="new 0 0 1844 408" xml:space="preserve">
<path fill="transparent" opacity="1.000000" stroke="none" 
	d="
M403.000000,1.000000 
	C883.605652,1.000000 1364.211304,1.000000 1844.908447,1.000000 
	C1844.908447,136.921692 1844.908447,272.843445 1844.908447,409.000000 
	C1392.635742,409.000000 940.271545,409.000000 487.614502,408.686646 
	C496.044189,405.179718 501.005615,398.058594 501.005951,388.674957 
	C501.009369,292.191925 500.916412,195.708664 501.135712,99.226128 
	C501.160309,88.400909 493.845795,77.818756 479.689301,77.934235 
	C458.530121,78.106850 437.367798,77.892776 416.166962,77.388985 
	C416.115906,58.957035 415.658081,40.964275 416.261444,23.007177 
	C416.621643,12.285683 412.409637,5.331394 403.000000,1.000000 
M1794.032471,98.371727 
	C1788.065674,91.791893 1782.547241,84.714622 1775.983154,78.797279 
	C1771.156616,74.446381 1765.324463,70.728546 1759.311401,68.262741 
	C1737.176880,59.185799 1714.051270,58.787151 1690.949219,63.147778 
	C1670.564575,66.995544 1653.667114,77.553680 1640.732544,93.847046 
	C1621.795288,117.701675 1613.792847,145.592407 1613.269287,175.483627 
	C1613.024658,189.446396 1614.810913,203.605301 1617.178711,217.417831 
	C1621.335083,241.664413 1632.069946,262.764832 1650.259888,279.827301 
	C1666.052246,294.640717 1684.978027,301.260132 1706.245972,301.958832 
	C1714.028931,302.214478 1721.827271,302.000000 1730.000000,302.000000 
	C1730.000000,303.507477 1729.949463,304.630157 1730.007446,305.747223 
	C1731.110596,326.972382 1741.817749,339.209167 1760.845825,343.893951 
	C1776.675415,347.791260 1792.771973,346.228790 1808.764160,344.869293 
	C1808.764160,332.319092 1808.764160,320.217072 1808.764160,307.939056 
	C1807.430542,308.344452 1806.364258,308.944336 1805.294067,308.951294 
	C1794.462036,309.021759 1783.605835,309.421570 1772.807129,308.819336 
	C1767.264160,308.510223 1761.998413,305.497559 1760.172974,299.835510 
	C1758.294189,294.008331 1762.879761,290.992218 1767.183228,288.313751 
	C1778.267456,281.414917 1788.093750,273.003510 1795.786621,262.470795 
	C1811.902832,240.405029 1817.637939,214.909866 1818.932007,188.209961 
	C1819.799561,170.307755 1818.011353,152.541367 1812.879761,135.343964 
	C1808.956787,122.197174 1803.130615,109.814926 1794.032471,98.371727 
M1260.510254,64.000000 
	C1256.407959,64.000000 1252.305786,64.000000 1248.254761,64.000000 
	C1248.254761,141.950378 1248.254761,219.333450 1248.254761,296.746765 
	C1262.245972,296.746765 1275.980835,296.746765 1290.000000,296.746765 
	C1290.000000,294.861359 1290.000000,293.225983 1290.000000,291.590637 
	C1290.000000,262.102539 1289.888428,232.613693 1290.090820,203.126984 
	C1290.133057,196.971878 1290.734985,190.686569 1292.113892,184.699600 
	C1296.403320,166.073578 1310.161011,151.664551 1331.328369,152.899811 
	C1340.733887,153.448715 1347.778809,157.682510 1351.633911,165.684753 
	C1354.273193,171.163147 1355.750488,177.731476 1355.814819,183.832855 
	C1356.191650,219.647751 1356.000000,255.468643 1356.000000,291.287506 
	C1356.000000,293.071899 1356.000000,294.856262 1356.000000,296.788300 
	C1369.827881,296.788300 1383.229126,296.788300 1397.000000,296.788300 
	C1397.000000,294.957672 1397.000000,293.332886 1397.000000,291.708099 
	C1397.000000,256.555634 1397.140625,221.402237 1396.908447,186.251312 
	C1396.844604,176.591797 1396.481445,166.797165 1394.824341,157.314697 
	C1391.676514,139.303497 1381.662354,126.343376 1363.834106,120.385071 
	C1354.281494,117.192497 1344.322632,117.754089 1334.486328,118.072571 
	C1323.465332,118.429428 1313.492065,122.318352 1305.669678,130.066986 
	C1299.804688,135.876663 1294.962280,142.718857 1289.753662,148.994125 
	C1289.753662,121.046394 1289.753662,92.632057 1289.753662,64.000000 
	C1280.122681,64.000000 1270.815308,64.000000 1260.510254,64.000000 
M900.381287,126.955917 
	C875.240967,133.191544 858.486938,155.830490 859.629883,171.653976 
	C861.920227,172.022537 864.160217,172.433060 866.414551,172.736771 
	C874.631165,173.843796 882.839050,175.058197 891.087280,175.841614 
	C892.288147,175.955658 894.453430,174.192749 894.877930,172.879776 
	C897.967590,163.325165 903.906250,156.502243 913.345398,153.040863 
	C926.043213,148.384491 939.218079,149.002579 952.111023,151.316406 
	C958.195618,152.408401 964.136169,155.501968 968.100403,161.279251 
	C973.809509,169.599472 972.889954,178.734039 972.974670,187.500534 
	C963.682190,188.027557 955.112000,188.865158 946.536804,188.920532 
	C932.422424,189.011719 918.564392,190.774017 904.862122,194.004745 
	C891.406250,197.177368 878.530701,201.908203 868.241211,211.406906 
	C854.178711,224.388580 850.591797,241.349854 854.361145,259.173553 
	C858.374695,278.152252 870.737061,290.843201 889.376587,297.053284 
	C902.159241,301.312103 915.192383,300.741486 928.233215,298.979370 
	C943.542297,296.910675 956.064331,289.818939 965.211609,277.232788 
	C967.946777,273.469269 970.260498,269.399445 972.250122,266.280609 
	C974.034851,276.143097 975.923218,286.578247 977.753357,296.691467 
	C991.747986,296.691467 1004.802124,296.691467 1017.496033,296.691467 
	C1015.968323,288.380310 1013.380981,280.331360 1013.192261,272.226562 
	C1012.402893,238.331421 1011.927612,204.416992 1012.137268,170.514572 
	C1012.286438,146.399857 995.205139,130.253479 975.033020,124.919640 
	C960.918884,121.187630 946.589966,121.599411 932.343811,122.203690 
	C921.867981,122.648048 911.471680,124.965500 900.381287,126.955917 
M724.000000,84.496857 
	C724.000000,77.731224 724.000000,70.965591 724.000000,64.286484 
	C672.687134,64.286484 621.953186,64.286484 571.280029,64.286484 
	C571.280029,141.971298 571.280029,219.369308 571.280029,296.717712 
	C586.632935,296.717712 601.704102,296.717712 617.167725,296.717712 
	C617.167725,264.033051 617.167725,231.628830 617.167725,198.831924 
	C645.300476,198.831924 673.038818,198.831924 700.714600,198.831924 
	C700.714600,186.360840 700.714600,174.289108 700.714600,161.825500 
	C672.693054,161.825500 644.954712,161.825500 617.287415,161.825500 
	C617.287415,141.023102 617.287415,120.619225 617.287415,99.822495 
	C652.976929,99.822495 688.380676,99.822495 724.000000,99.822495 
	C724.000000,94.783859 724.000000,90.139626 724.000000,84.496857 
M1099.423950,175.949646 
	C1092.312500,167.269897 1098.193726,157.411575 1106.770752,153.890808 
	C1114.002563,150.922165 1121.402344,151.102859 1128.911377,150.959000 
	C1142.869141,150.691635 1154.043091,154.964432 1159.613037,169.521301 
	C1171.844849,167.204651 1183.894531,164.922485 1196.217407,162.588577 
	C1191.039551,143.619019 1178.609375,131.759705 1160.487549,126.123383 
	C1140.861572,120.019264 1120.631348,120.197388 1100.724121,124.303772 
	C1088.025513,126.923187 1076.979736,133.409790 1068.930786,144.267365 
	C1059.397827,157.126923 1056.034424,171.339081 1059.062134,186.949402 
	C1060.858276,196.209854 1065.138184,204.534653 1072.343750,210.615372 
	C1086.413086,222.488434 1103.762695,226.144806 1121.364136,229.066483 
	C1131.211914,230.701141 1141.056641,232.595581 1150.702148,235.135223 
	C1159.035889,237.329544 1163.790894,243.177979 1164.015381,249.400925 
	C1164.394409,259.896729 1157.709351,265.800903 1148.099609,267.718536 
	C1138.374390,269.659119 1128.123047,270.397766 1118.237183,269.713348 
	C1107.337891,268.958771 1097.331421,264.424011 1092.142700,253.804214 
	C1090.175415,249.777878 1087.452881,249.506348 1084.244751,250.087814 
	C1073.156250,252.097610 1062.120483,254.398300 1050.915894,256.617706 
	C1052.668701,264.743042 1056.490479,271.690552 1062.169922,277.670410 
	C1076.012085,292.244873 1093.957764,298.241852 1113.091187,299.738007 
	C1133.650513,301.345673 1154.321289,300.694122 1173.490479,291.021515 
	C1184.054688,285.690857 1193.686279,279.492767 1199.238525,268.391754 
	C1204.916504,257.039398 1205.919800,245.286407 1204.092529,232.857605 
	C1201.582642,215.787903 1192.184692,203.615723 1176.464111,198.349152 
	C1159.921143,192.807037 1142.480835,189.916199 1125.394531,186.034500 
	C1116.461670,184.005081 1107.278076,182.785690 1099.423950,175.949646 
M1487.077026,316.382599 
	C1481.794800,323.207092 1474.663818,325.367065 1466.308472,325.057526 
	C1458.903320,324.783173 1451.479858,325.000000 1444.000000,325.000000 
	C1444.000000,334.700989 1444.208740,343.701630 1443.908691,352.685303 
	C1443.766113,356.952515 1445.595337,358.067810 1449.355713,358.029999 
	C1458.519043,357.937805 1467.724609,358.536499 1476.835815,357.841156 
	C1485.080444,357.211945 1492.677368,354.240173 1499.128540,348.493134 
	C1508.708984,339.958252 1513.733643,328.749664 1517.890869,317.161682 
	C1528.653320,287.162018 1538.951538,256.996185 1549.555542,226.939240 
	C1561.531494,192.993210 1573.638916,159.093582 1585.711060,125.111694 
	C1574.460938,125.111694 1563.477905,125.111694 1552.356201,125.111694 
	C1540.105713,162.316498 1527.874634,199.462006 1515.608154,236.715134 
	C1510.676025,223.908813 1505.797485,211.382797 1501.024170,198.816864 
	C1491.983643,175.017960 1483.020996,151.189453 1473.935547,127.407814 
	C1473.561401,126.428406 1472.275391,125.119141 1471.402100,125.109924 
	C1457.660034,124.964821 1443.916016,125.008095 1429.622925,125.008095 
	C1433.504150,135.230667 1437.144653,144.787170 1440.761719,154.352539 
	C1448.520142,174.868988 1456.249878,195.396301 1464.022705,215.907318 
	C1472.079834,237.168274 1480.175781,258.414551 1488.250977,279.668732 
	C1491.862061,289.173065 1497.482178,298.464172 1491.015259,308.961761 
	C1489.674438,311.138275 1488.753662,313.573517 1487.077026,316.382599 
M764.000000,284.489929 
	C764.000000,288.593140 764.000000,292.696320 764.000000,296.711884 
	C778.310425,296.711884 792.049011,296.711884 805.714600,296.711884 
	C805.714600,219.022919 805.714600,141.622391 805.714600,64.288513 
	C791.688782,64.288513 777.950134,64.288513 764.000000,64.288513 
	C764.000000,137.548584 764.000000,210.520355 764.000000,284.489929 
z"/>
<path fill="#AD6BFF" opacity="1.000000" stroke="none" 
	d="
M416.206818,77.843185 
	C437.367798,77.892776 458.530121,78.106850 479.689301,77.934235 
	C493.845795,77.818756 501.160309,88.400909 501.135712,99.226128 
	C500.916412,195.708664 501.009369,292.191925 501.005951,388.674957 
	C501.005615,398.058594 496.044189,405.179718 487.160858,408.686646 
	C357.645782,409.000000 228.291550,409.000000 98.314224,408.689941 
	C88.390251,404.817627 84.967888,397.819580 85.077072,388.162689 
	C85.289085,369.411896 85.085136,350.656403 85.053337,331.440308 
	C85.043884,253.545090 85.000244,176.112411 85.132851,98.680023 
	C85.139091,95.034035 86.018707,91.027718 87.696609,87.819427 
	C91.555664,80.440582 98.464172,77.993614 106.482414,77.994774 
	C207.394836,78.009407 308.307251,78.005432 409.219666,77.997604 
	C411.548706,77.997421 413.877777,77.896904 416.206818,77.843185 
z"/>
<path fill="#C69AFC" opacity="1.000000" stroke="none" 
	d="
M416.166962,77.388992 
	C413.877777,77.896904 411.548706,77.997421 409.219666,77.997604 
	C308.307251,78.005432 207.394836,78.009407 106.482414,77.994774 
	C98.464172,77.993614 91.555664,80.440582 87.696609,87.819427 
	C86.018707,91.027718 85.139091,95.034035 85.132851,98.680023 
	C85.000244,176.112411 85.043884,253.545090 84.579865,331.441010 
	C63.805321,331.905792 43.497036,331.590149 23.205708,332.039673 
	C12.718583,332.272003 5.362644,328.528717 1.000000,319.000000 
	C1.000000,217.312439 1.000000,115.624878 1.284832,13.280527 
	C3.556284,6.442668 8.394812,3.311404 14.000000,1.000000 
	C143.354233,1.000000 272.708466,1.000000 402.531342,1.000000 
	C412.409637,5.331394 416.621643,12.285683 416.261444,23.007177 
	C415.658081,40.964275 416.115906,58.957035 416.166962,77.388992 
z"/>
<path fill="transparent" opacity="1.000000" stroke="none" 
	d="
M1.000000,319.468658 
	C5.362644,328.528717 12.718583,332.272003 23.205708,332.039673 
	C43.497036,331.590149 63.805321,331.905792 84.580048,331.903564 
	C85.085136,350.656403 85.289085,369.411896 85.077072,388.162689 
	C84.967888,397.819580 88.390251,404.817627 97.845566,408.689941 
	C65.742485,409.000000 33.484962,409.000000 1.000000,409.000000 
	C1.000000,379.312836 1.000000,349.625061 1.000000,319.468658 
z"/>
<path fill="#FEFEFF" opacity="1.000000" stroke="none" 
	d="
M13.523338,1.000000 
	C8.394812,3.311404 3.556284,6.442668 1.284832,12.811871 
	C1.000000,9.074012 1.000000,5.148024 1.000000,1.000000 
	C5.013897,1.000000 9.030287,1.000000 13.523338,1.000000 
z"/>
<path fill="#000000" opacity="1.000000" stroke="none" 
	d="
M1794.248535,98.671654 
	C1803.130615,109.814926 1808.956787,122.197174 1812.879761,135.343964 
	C1818.011353,152.541367 1819.799561,170.307755 1818.932007,188.209961 
	C1817.637939,214.909866 1811.902832,240.405029 1795.786621,262.470795 
	C1788.093750,273.003510 1778.267456,281.414917 1767.183228,288.313751 
	C1762.879761,290.992218 1758.294189,294.008331 1760.172974,299.835510 
	C1761.998413,305.497559 1767.264160,308.510223 1772.807129,308.819336 
	C1783.605835,309.421570 1794.462036,309.021759 1805.294067,308.951294 
	C1806.364258,308.944336 1807.430542,308.344452 1808.764160,307.939056 
	C1808.764160,320.217072 1808.764160,332.319092 1808.764160,344.869293 
	C1792.771973,346.228790 1776.675415,347.791260 1760.845825,343.893951 
	C1741.817749,339.209167 1731.110596,326.972382 1730.007446,305.747223 
	C1729.949463,304.630157 1730.000000,303.507477 1730.000000,302.000000 
	C1721.827271,302.000000 1714.028931,302.214478 1706.245972,301.958832 
	C1684.978027,301.260132 1666.052246,294.640717 1650.259888,279.827301 
	C1632.069946,262.764832 1621.335083,241.664413 1617.178711,217.417831 
	C1614.810913,203.605301 1613.024658,189.446396 1613.269287,175.483627 
	C1613.792847,145.592407 1621.795288,117.701675 1640.732544,93.847046 
	C1653.667114,77.553680 1670.564575,66.995544 1690.949219,63.147778 
	C1714.051270,58.787151 1737.176880,59.185799 1759.311401,68.262741 
	C1765.324463,70.728546 1771.156616,74.446381 1775.983154,78.797279 
	C1782.547241,84.714622 1788.065674,91.791893 1794.248535,98.671654 
M1771.000000,182.474380 
	C1771.051636,167.386322 1769.895874,152.422272 1765.975830,137.793442 
	C1762.984619,126.630859 1757.912964,116.759048 1749.310181,108.598206 
	C1739.171509,98.980370 1727.479004,95.351357 1713.707031,95.884438 
	C1695.146973,96.602875 1681.791992,104.898827 1672.963867,121.093369 
	C1664.008423,137.521194 1662.330322,155.595596 1661.147583,173.681778 
	C1660.611572,181.876724 1661.821289,190.173035 1661.962646,198.428085 
	C1662.170044,210.556046 1664.721680,222.161758 1668.990479,233.462143 
	C1680.528931,264.006500 1708.147705,270.382812 1734.351562,262.033936 
	C1750.190430,256.987488 1758.521973,244.271652 1763.917725,229.539627 
	C1769.347168,214.715790 1770.387207,199.090698 1771.000000,182.474380 
z"/>
<path fill="#000000" opacity="1.000000" stroke="none" 
	d="
M1261.009033,64.000000 
	C1270.815308,64.000000 1280.122681,64.000000 1289.753662,64.000000 
	C1289.753662,92.632057 1289.753662,121.046394 1289.753662,148.994125 
	C1294.962280,142.718857 1299.804688,135.876663 1305.669678,130.066986 
	C1313.492065,122.318352 1323.465332,118.429428 1334.486328,118.072571 
	C1344.322632,117.754089 1354.281494,117.192497 1363.834106,120.385071 
	C1381.662354,126.343376 1391.676514,139.303497 1394.824341,157.314697 
	C1396.481445,166.797165 1396.844604,176.591797 1396.908447,186.251312 
	C1397.140625,221.402237 1397.000000,256.555634 1397.000000,291.708099 
	C1397.000000,293.332886 1397.000000,294.957672 1397.000000,296.788300 
	C1383.229126,296.788300 1369.827881,296.788300 1356.000000,296.788300 
	C1356.000000,294.856262 1356.000000,293.071899 1356.000000,291.287506 
	C1356.000000,255.468643 1356.191650,219.647751 1355.814819,183.832855 
	C1355.750488,177.731476 1354.273193,171.163147 1351.633911,165.684753 
	C1347.778809,157.682510 1340.733887,153.448715 1331.328369,152.899811 
	C1310.161011,151.664551 1296.403320,166.073578 1292.113892,184.699600 
	C1290.734985,190.686569 1290.133057,196.971878 1290.090820,203.126984 
	C1289.888428,232.613693 1290.000000,262.102539 1290.000000,291.590637 
	C1290.000000,293.225983 1290.000000,294.861359 1290.000000,296.746765 
	C1275.980835,296.746765 1262.245972,296.746765 1248.254761,296.746765 
	C1248.254761,219.333450 1248.254761,141.950378 1248.254761,64.000000 
	C1252.305786,64.000000 1256.407959,64.000000 1261.009033,64.000000 
z"/>
<path fill="#000000" opacity="1.000000" stroke="none" 
	d="
M900.710571,126.702087 
	C911.471680,124.965500 921.867981,122.648048 932.343811,122.203690 
	C946.589966,121.599411 960.918884,121.187630 975.033020,124.919640 
	C995.205139,130.253479 1012.286438,146.399857 1012.137268,170.514572 
	C1011.927612,204.416992 1012.402893,238.331421 1013.192261,272.226562 
	C1013.380981,280.331360 1015.968323,288.380310 1017.496033,296.691467 
	C1004.802124,296.691467 991.747986,296.691467 977.753357,296.691467 
	C975.923218,286.578247 974.034851,276.143097 972.250122,266.280609 
	C970.260498,269.399445 967.946777,273.469269 965.211609,277.232788 
	C956.064331,289.818939 943.542297,296.910675 928.233215,298.979370 
	C915.192383,300.741486 902.159241,301.312103 889.376587,297.053284 
	C870.737061,290.843201 858.374695,278.152252 854.361145,259.173553 
	C850.591797,241.349854 854.178711,224.388580 868.241211,211.406906 
	C878.530701,201.908203 891.406250,197.177368 904.862122,194.004745 
	C918.564392,190.774017 932.422424,189.011719 946.536804,188.920532 
	C955.112000,188.865158 963.682190,188.027557 972.974670,187.500534 
	C972.889954,178.734039 973.809509,169.599472 968.100403,161.279251 
	C964.136169,155.501968 958.195618,152.408401 952.111023,151.316406 
	C939.218079,149.002579 926.043213,148.384491 913.345398,153.040863 
	C903.906250,156.502243 897.967590,163.325165 894.877930,172.879776 
	C894.453430,174.192749 892.288147,175.955658 891.087280,175.841614 
	C882.839050,175.058197 874.631165,173.843796 866.414551,172.736771 
	C864.160217,172.433060 861.920227,172.022537 859.629883,171.653976 
	C858.486938,155.830490 875.240967,133.191544 900.710571,126.702087 
M951.769165,212.000122 
	C945.207092,213.000458 938.584351,213.710419 932.096680,215.066589 
	C921.337708,217.315628 910.948486,220.328461 902.776428,228.587006 
	C896.073242,235.361313 894.480835,243.338516 896.608154,251.960892 
	C898.889526,261.207336 905.459534,267.022644 914.710327,268.849152 
	C920.441528,269.980682 926.458740,269.945831 932.346863,269.937286 
	C942.287048,269.922882 950.915955,266.196594 958.084473,259.379150 
	C971.682434,246.447266 973.601929,229.836548 972.856812,212.000000 
	C965.951904,212.000000 959.336914,212.000000 951.769165,212.000122 
z"/>
<path fill="#000000" opacity="1.000000" stroke="none" 
	d="
M724.000000,84.996124 
	C724.000000,90.139626 724.000000,94.783859 724.000000,99.822495 
	C688.380676,99.822495 652.976929,99.822495 617.287415,99.822495 
	C617.287415,120.619225 617.287415,141.023102 617.287415,161.825500 
	C644.954712,161.825500 672.693054,161.825500 700.714600,161.825500 
	C700.714600,174.289108 700.714600,186.360840 700.714600,198.831924 
	C673.038818,198.831924 645.300476,198.831924 617.167725,198.831924 
	C617.167725,231.628830 617.167725,264.033051 617.167725,296.717712 
	C601.704102,296.717712 586.632935,296.717712 571.280029,296.717712 
	C571.280029,219.369308 571.280029,141.971298 571.280029,64.286484 
	C621.953186,64.286484 672.687134,64.286484 724.000000,64.286484 
	C724.000000,70.965591 724.000000,77.731224 724.000000,84.996124 
z"/>
<path fill="#000000" opacity="1.000000" stroke="none" 
	d="
M1099.702393,176.209946 
	C1107.278076,182.785690 1116.461670,184.005081 1125.394531,186.034500 
	C1142.480835,189.916199 1159.921143,192.807037 1176.464111,198.349152 
	C1192.184692,203.615723 1201.582642,215.787903 1204.092529,232.857605 
	C1205.919800,245.286407 1204.916504,257.039398 1199.238525,268.391754 
	C1193.686279,279.492767 1184.054688,285.690857 1173.490479,291.021515 
	C1154.321289,300.694122 1133.650513,301.345673 1113.091187,299.738007 
	C1093.957764,298.241852 1076.012085,292.244873 1062.169922,277.670410 
	C1056.490479,271.690552 1052.668701,264.743042 1050.915894,256.617706 
	C1062.120483,254.398300 1073.156250,252.097610 1084.244751,250.087814 
	C1087.452881,249.506348 1090.175415,249.777878 1092.142700,253.804214 
	C1097.331421,264.424011 1107.337891,268.958771 1118.237183,269.713348 
	C1128.123047,270.397766 1138.374390,269.659119 1148.099609,267.718536 
	C1157.709351,265.800903 1164.394409,259.896729 1164.015381,249.400925 
	C1163.790894,243.177979 1159.035889,237.329544 1150.702148,235.135223 
	C1141.056641,232.595581 1131.211914,230.701141 1121.364136,229.066483 
	C1103.762695,226.144806 1086.413086,222.488434 1072.343750,210.615372 
	C1065.138184,204.534653 1060.858276,196.209854 1059.062134,186.949402 
	C1056.034424,171.339081 1059.397827,157.126923 1068.930786,144.267365 
	C1076.979736,133.409790 1088.025513,126.923187 1100.724121,124.303772 
	C1120.631348,120.197388 1140.861572,120.019264 1160.487549,126.123383 
	C1178.609375,131.759705 1191.039551,143.619019 1196.217407,162.588577 
	C1183.894531,164.922485 1171.844849,167.204651 1159.613037,169.521301 
	C1154.043091,154.964432 1142.869141,150.691635 1128.911377,150.959000 
	C1121.402344,151.102859 1114.002563,150.922165 1106.770752,153.890808 
	C1098.193726,157.411575 1092.312500,167.269897 1099.702393,176.209946 
z"/>
<path fill="#000000" opacity="1.000000" stroke="none" 
	d="
M1487.358154,316.136047 
	C1488.753662,313.573517 1489.674438,311.138275 1491.015259,308.961761 
	C1497.482178,298.464172 1491.862061,289.173065 1488.250977,279.668732 
	C1480.175781,258.414551 1472.079834,237.168274 1464.022705,215.907318 
	C1456.249878,195.396301 1448.520142,174.868988 1440.761719,154.352539 
	C1437.144653,144.787170 1433.504150,135.230667 1429.622925,125.008095 
	C1443.916016,125.008095 1457.660034,124.964821 1471.402100,125.109924 
	C1472.275391,125.119141 1473.561401,126.428406 1473.935547,127.407814 
	C1483.020996,151.189453 1491.983643,175.017960 1501.024170,198.816864 
	C1505.797485,211.382797 1510.676025,223.908813 1515.608154,236.715134 
	C1527.874634,199.462006 1540.105713,162.316498 1552.356201,125.111694 
	C1563.477905,125.111694 1574.460938,125.111694 1585.711060,125.111694 
	C1573.638916,159.093582 1561.531494,192.993210 1549.555542,226.939240 
	C1538.951538,256.996185 1528.653320,287.162018 1517.890869,317.161682 
	C1513.733643,328.749664 1508.708984,339.958252 1499.128540,348.493134 
	C1492.677368,354.240173 1485.080444,357.211945 1476.835815,357.841156 
	C1467.724609,358.536499 1458.519043,357.937805 1449.355713,358.029999 
	C1445.595337,358.067810 1443.766113,356.952515 1443.908691,352.685303 
	C1444.208740,343.701630 1444.000000,334.700989 1444.000000,325.000000 
	C1451.479858,325.000000 1458.903320,324.783173 1466.308472,325.057526 
	C1474.663818,325.367065 1481.794800,323.207092 1487.358154,316.136047 
z"/>
<path fill="#000000" opacity="1.000000" stroke="none" 
	d="
M764.000000,283.991028 
	C764.000000,210.520355 764.000000,137.548584 764.000000,64.288513 
	C777.950134,64.288513 791.688782,64.288513 805.714600,64.288513 
	C805.714600,141.622391 805.714600,219.022919 805.714600,296.711884 
	C792.049011,296.711884 778.310425,296.711884 764.000000,296.711884 
	C764.000000,292.696320 764.000000,288.593140 764.000000,283.991028 
z"/>
<path fill="transparent" opacity="1.000000" stroke="none" 
	d="
M1771.000000,182.966980 
	C1770.387207,199.090698 1769.347168,214.715790 1763.917725,229.539627 
	C1758.521973,244.271652 1750.190430,256.987488 1734.351562,262.033936 
	C1708.147705,270.382812 1680.528931,264.006500 1668.990479,233.462143 
	C1664.721680,222.161758 1662.170044,210.556046 1661.962646,198.428085 
	C1661.821289,190.173035 1660.611572,181.876724 1661.147583,173.681778 
	C1662.330322,155.595596 1664.008423,137.521194 1672.963867,121.093369 
	C1681.791992,104.898827 1695.146973,96.602875 1713.707031,95.884438 
	C1727.479004,95.351357 1739.171509,98.980370 1749.310181,108.598206 
	C1757.912964,116.759048 1762.984619,126.630859 1765.975830,137.793442 
	C1769.895874,152.422272 1771.051636,167.386322 1771.000000,182.966980 
z"/>
<path fill="transparent" opacity="1.000000" stroke="none" 
	d="
M952.245544,212.000061 
	C959.336914,212.000000 965.951904,212.000000 972.856812,212.000000 
	C973.601929,229.836548 971.682434,246.447266 958.084473,259.379150 
	C950.915955,266.196594 942.287048,269.922882 932.346863,269.937286 
	C926.458740,269.945831 920.441528,269.980682 914.710327,268.849152 
	C905.459534,267.022644 898.889526,261.207336 896.608154,251.960892 
	C894.480835,243.338516 896.073242,235.361313 902.776428,228.587006 
	C910.948486,220.328461 921.337708,217.315628 932.096680,215.066589 
	C938.584351,213.710419 945.207092,213.000458 952.245544,212.000061 
z"/>
</svg>